<?xml version="1.0" encoding="UTF-8" standalone="no"?>
<!-- Created with Inkscape (http://www.inkscape.org/) -->

<svg
   width="210mm"
   height="297mm"
   viewBox="0 0 210 297"
   version="1.1"
   id="svg5"
   xml:space="preserve"
   inkscape:version="1.3 (0e150ed6c4, 2023-07-21)"
   sodipodi:docname="left_blackl.svg"
   xmlns:inkscape="http://www.inkscape.org/namespaces/inkscape"
   xmlns:sodipodi="http://sodipodi.sourceforge.net/DTD/sodipodi-0.dtd"
   xmlns="http://www.w3.org/2000/svg"
   xmlns:svg="http://www.w3.org/2000/svg"><sodipodi:namedview
     id="namedview7"
     pagecolor="#505050"
     bordercolor="#eeeeee"
     borderopacity="1"
     inkscape:showpageshadow="0"
     inkscape:pageopacity="0"
     inkscape:pagecheckerboard="0"
     inkscape:deskcolor="#505050"
     inkscape:document-units="mm"
     showgrid="false"
     inkscape:zoom="0.43465247"
     inkscape:cx="143.79304"
     inkscape:cy="516.5046"
     inkscape:window-width="1920"
     inkscape:window-height="1137"
     inkscape:window-x="-8"
     inkscape:window-y="-8"
     inkscape:window-maximized="1"
     inkscape:current-layer="layer1" /><defs
     id="defs2"><rect
       x="-640.47263"
       y="817.85512"
       width="777.16916"
       height="166.26483"
       id="rect2348" /><rect
       x="-574.12346"
       y="876.0799"
       width="396.74097"
       height="176.02842"
       id="rect2342" /><rect
       x="-461.73608"
       y="716.30026"
       width="335.80806"
       height="200.40158"
       id="rect2336" /><rect
       x="-518.6068"
       y="687.8649"
       width="329.03774"
       height="125.92802"
       id="rect2280" /><rect
       x="26.809114"
       y="775.54938"
       width="369.58279"
       height="189.57874"
       id="rect7524" /><rect
       x="-208.52597"
       y="924.82623"
       width="556.52062"
       height="274.87515"
       id="rect7517" /><rect
       x="97.661774"
       y="806.18837"
       width="622.35444"
       height="279.58076"
       id="rect7509" /><rect
       x="85.30608"
       y="778.58724"
       width="603.91288"
       height="323.62148"
       id="rect7394" /><inkscape:perspective
       sodipodi:type="inkscape:persp3d"
       inkscape:vp_x="0 : 526.18109 : 1"
       inkscape:vp_y="0 : 1000 : 0"
       inkscape:vp_z="744.09448 : 526.18109 : 1"
       inkscape:persp3d-origin="372.04724 : 350.78739 : 1"
       id="perspective9" /><inkscape:perspective
       id="perspective2413"
       inkscape:persp3d-origin="271.32874 : 121.57086 : 1"
       inkscape:vp_z="542.65747 : 182.35629 : 1"
       inkscape:vp_y="0 : 1000 : 0"
       inkscape:vp_x="0 : 182.35629 : 1"
       sodipodi:type="inkscape:persp3d" /><rect
       x="-574.12346"
       y="876.0799"
       width="396.74097"
       height="176.02842"
       id="rect2411" /><rect
       x="-640.47263"
       y="817.85512"
       width="777.16916"
       height="166.26483"
       id="rect2491" /><rect
       x="-574.12346"
       y="876.0799"
       width="396.74097"
       height="176.02842"
       id="rect2493" /><rect
       x="-461.73608"
       y="716.30026"
       width="335.80806"
       height="200.40158"
       id="rect2495" /><rect
       x="-518.6068"
       y="687.8649"
       width="329.03774"
       height="125.92802"
       id="rect2497" /><rect
       x="-640.47263"
       y="817.85512"
       width="777.16916"
       height="166.26483"
       id="rect2517" /><rect
       x="-574.12346"
       y="876.0799"
       width="396.74097"
       height="176.02842"
       id="rect2519" /><rect
       x="-461.73608"
       y="716.30026"
       width="335.80806"
       height="200.40158"
       id="rect2521" /><rect
       x="-518.6068"
       y="687.8649"
       width="329.03774"
       height="125.92802"
       id="rect2523" /><rect
       x="-640.47263"
       y="817.85512"
       width="777.16916"
       height="166.26483"
       id="rect2543" /><rect
       x="-574.12346"
       y="876.0799"
       width="396.74097"
       height="176.02842"
       id="rect2545" /><rect
       x="-461.73608"
       y="716.30026"
       width="335.80806"
       height="200.40158"
       id="rect2547" /><rect
       x="-518.6068"
       y="687.8649"
       width="329.03774"
       height="125.92802"
       id="rect2549" /><rect
       x="-640.47263"
       y="817.85512"
       width="777.16916"
       height="166.26483"
       id="rect2587" /><rect
       x="-574.12346"
       y="876.0799"
       width="396.74097"
       height="176.02842"
       id="rect2589" /><rect
       x="-461.73608"
       y="716.30026"
       width="335.80806"
       height="200.40158"
       id="rect2591" /><rect
       x="-518.6068"
       y="687.8649"
       width="329.03774"
       height="125.92802"
       id="rect2593" /><rect
       x="-640.47263"
       y="817.85512"
       width="777.16916"
       height="166.26483"
       id="rect2613" /><rect
       x="-574.12346"
       y="876.0799"
       width="396.74097"
       height="176.02842"
       id="rect2615" /><rect
       x="-461.73608"
       y="716.30026"
       width="335.80806"
       height="200.40158"
       id="rect2617" /><rect
       x="-518.6068"
       y="687.8649"
       width="329.03774"
       height="125.92802"
       id="rect2619" /><rect
       x="-640.47263"
       y="817.85512"
       width="777.16916"
       height="166.26483"
       id="rect2639" /><rect
       x="-574.12346"
       y="876.0799"
       width="396.74097"
       height="176.02842"
       id="rect2641" /><rect
       x="-461.73608"
       y="716.30026"
       width="335.80806"
       height="200.40158"
       id="rect2643" /><rect
       x="-518.6068"
       y="687.8649"
       width="329.03774"
       height="125.92802"
       id="rect2645" /><rect
       x="-640.47263"
       y="817.85512"
       width="777.16916"
       height="166.26483"
       id="rect2665" /><rect
       x="-574.12346"
       y="876.0799"
       width="396.74097"
       height="176.02842"
       id="rect2667" /><rect
       x="-461.73608"
       y="716.30026"
       width="335.80806"
       height="200.40158"
       id="rect2669" /><rect
       x="-518.6068"
       y="687.8649"
       width="329.03774"
       height="125.92802"
       id="rect2671" /><rect
       x="-640.47263"
       y="817.85512"
       width="777.16916"
       height="166.26483"
       id="rect2691" /><rect
       x="-574.12346"
       y="876.0799"
       width="396.74097"
       height="176.02842"
       id="rect2693" /><rect
       x="-461.73608"
       y="716.30026"
       width="335.80806"
       height="200.40158"
       id="rect2695" /><rect
       x="-518.6068"
       y="687.8649"
       width="329.03774"
       height="125.92802"
       id="rect2697" /><rect
       x="-640.47263"
       y="817.85512"
       width="777.16916"
       height="166.26483"
       id="rect2717" /><rect
       x="-574.12346"
       y="876.0799"
       width="396.74097"
       height="176.02842"
       id="rect2719" /><rect
       x="-461.73608"
       y="716.30026"
       width="335.80806"
       height="200.40158"
       id="rect2721" /><rect
       x="-518.6068"
       y="687.8649"
       width="329.03774"
       height="125.92802"
       id="rect2723" /></defs><g
     inkscape:label="Base"
     inkscape:groupmode="layer"
     id="layer1"
     sodipodi:insensitive="true"
     style="display:inline"><g
       id="g2141"
       inkscape:label="BG"
       sodipodi:insensitive="true"><path
         style="fill:#2a2a2a;stroke:#f7931a;stroke-width:0;stroke-opacity:0.8;stroke-dasharray:0,0,0,0;stroke-dashoffset:0"
         d="m 131.19012,-18.675279 -57.956403,85.549193 53.536003,56.873486 -47.642132,14.33785 48.624442,84.11541 -56.482938,33.455 63.359118,62.13069 h 87.91691 V -23.932492 Z"
         id="path236"
         inkscape:label="bg-1" /></g></g></svg>
